Coordinates
version=1
nRows=10
nColumns=22
inDegrees=yes

Units are S.I. units (second, meters, Newtons, ...)
If the header above contains a line with 'inDegrees', this indicates whether rotational values are in degrees (yes) or radians (no).

endheader
time	pelvis_tilt	pelvis_list	pelvis_rotation	pelvis_tx	pelvis_ty	pelvis_tz	hip_flexion_r	hip_adduction_r	hip_rotation_r	knee_angle_r	ankle_angle_r	subtalar_angle_r	hip_flexion_l	hip_adduction_l	hip_rotation_l	knee_angle_l	ankle_angle_l	subtalar_angle_l	lumbar_extension	lumbar_bending	lumbar_rotation
      4.00000000	     -5.00121910	     -0.20579371	    -81.51445686	      0.04036610	      0.93456220	      0.96104729	     -1.64889682	     10.87824251	     11.59984747	    -20.77511122	     18.61599993	     -6.32281835	     28.31615161	     -9.17018998	      3.74903838	    -16.71103518	      9.97791527	      6.76987518	     -4.72469376	      2.77003678	     11.08918725
      4.01000000	     -5.09780253	     -0.11283429	    -81.66862013	      0.04364244	      0.93366189	      0.96726688	     -1.81415997	     10.82924628	     11.78977910	    -21.12344441	     18.77190056	     -6.10391876	     28.45878892	     -9.13637389	      3.48002809	    -17.32140184	      9.41051591	      6.09247772	     -4.56551643	      2.82441867	     10.89318586
      4.02000000	     -5.15576113	     -0.02101123	    -81.83338327	      0.04690981	      0.93290466	      0.97352879	     -1.96893192	     10.74901696	     12.02636421	    -21.51009531	     18.88409901	     -5.95601992	     28.56600151	     -9.06140629	      3.26550345	    -17.96790816	      8.74314282	      5.51146970	     -4.41421874	      2.82571960	     10.71011278
      4.03000000	     -5.18021456	      0.07955325	    -81.96221596	      0.05026366	      0.93228947	      0.97980857	     -2.10101892	     10.63300409	     12.22305329	    -21.91957734	     18.94236614	     -5.79728847	     28.67485855	     -8.91950302	      3.17300873	    -18.64078657	      7.91457188	      4.81780357	     -4.25724111	      2.78570947	     10.51573999
      4.04000000	     -5.16277459	      0.18596274	    -82.06118389	      0.05367890	      0.93184392	      0.98610726	     -2.19814871	     10.48016587	     12.39317445	    -22.38362749	     18.94101002	     -5.63311117	     28.77772193	     -8.71422514	      3.13924270	    -19.31091786	      7.01542480	      4.09893809	     -4.09959236	      2.69402746	     10.28621534
      4.05000000	     -5.10405653	      0.29921977	    -82.12941681	      0.05715057	      0.93158072	      0.99242872	     -2.25494034	     10.29127032	     12.52514713	    -22.90675341	     18.87278929	     -5.45689204	     28.87727832	     -8.44894197	      3.15443129	    -19.97143659	      6.08752400	      3.40769316	     -3.93913777	      2.54972287	     10.03530096
      4.06000000	     -5.01164632	      0.41355005	    -82.16592512	      0.06069999	      0.93151452	      0.99877576	     -2.27305699	     10.07347718	     12.61579969	    -23.49321249	     18.72642255	     -5.26293960	     28.96422090	     -8.13267313	      3.20509574	    -20.61458244	      5.17272766	      2.81476231	     -3.78152082	      2.36946953	      9.76701005
      4.07000000	     -4.89765655	      0.52619032	    -82.17849036	      0.06429251	      0.93163940	      1.00515668	     -2.24469595	      9.84321722	     12.66885056	    -24.15787138	     18.49214893	     -5.03518441	     29.02376276	     -7.78500040	      3.29116244	    -21.22631863	      4.30483848	      2.33604333	     -3.62657909	      2.16253496	      9.48072648
      4.08000000	     -4.78036760	      0.62964163	    -82.17272480	      0.06791582	      0.93194828	      1.01157313	     -2.18092329	      9.61622867	     12.67750262	    -24.88602394	     18.15980070	     -4.76209967	     29.05410663	     -7.42938747	      3.40418482	    -21.81734558	      3.50804855	      1.99428394	     -3.48051521	      1.94843504	      9.21220895
      4.09000000	     -4.65134267	      0.72884281	    -82.15192597	      0.07159486	      0.93242410	      1.01801869	     -2.06772351	      9.38495822	     12.66288348	    -25.69726631	     17.73814646	     -4.48943138	     29.02075713	     -7.05523631	      3.54743625	    -22.32475511	      2.79463267	      1.83675887	     -3.33824966	      1.72906327	      8.92263309
